<svg width="36" height="35" viewBox="0 0 36 35" fill="none" xmlns="http://www.w3.org/2000/svg">
<g clip-path="url(#clip0_330_10)">
<path d="M28.4463 5.94055L32.729 10.1188L16.9379 25.5445L8.37256 17.1782L12.6552 13L16.9379 17.1782L28.4463 5.94055ZM28.4463 8.71283L16.9379 19.9604L12.6552 15.8316L11.2243 17.1782L16.9379 22.7425L29.8772 10.1188L28.4463 8.71283Z" fill="#BC4DF0"/>
</g>
<mask id="path-2-inside-1_330_10" fill="white">
<path d="M35.875 17.5C35.875 20.9612 34.8229 24.3446 32.8519 27.2225C30.881 30.1003 28.0795 32.3434 24.8019 33.6679C21.5242 34.9924 17.9176 35.339 14.4381 34.6637C10.9585 33.9885 7.76237 32.3218 5.25377 29.8744C2.74516 27.4269 1.03679 24.3087 0.344664 20.9141C-0.347458 17.5194 0.00776406 14.0007 1.36541 10.803C2.72305 7.60533 5.02215 4.87221 7.97195 2.94928C10.9218 1.02636 14.3898 -1.15955e-07 17.9375 -9.3093e-08L17.9375 6.59372C15.7265 6.59372 13.5652 7.23336 11.7268 8.43176C9.88843 9.63015 8.4556 11.3335 7.6095 13.3263C6.76339 15.3192 6.54201 17.5121 6.97335 19.6277C7.40469 21.7433 8.46938 23.6866 10.0328 25.2119C11.5962 26.7372 13.5881 27.7759 15.7566 28.1967C17.9251 28.6175 20.1728 28.4016 22.2155 27.5761C24.2582 26.7506 26.0041 25.3527 27.2324 23.5592C28.4608 21.7657 29.1164 19.6571 29.1164 17.5L35.875 17.5Z"/>
</mask>
<path d="M35.875 17.5C35.875 20.9612 34.8229 24.3446 32.8519 27.2225C30.881 30.1003 28.0795 32.3434 24.8019 33.6679C21.5242 34.9924 17.9176 35.339 14.4381 34.6637C10.9585 33.9885 7.76237 32.3218 5.25377 29.8744C2.74516 27.4269 1.03679 24.3087 0.344664 20.9141C-0.347458 17.5194 0.00776406 14.0007 1.36541 10.803C2.72305 7.60533 5.02215 4.87221 7.97195 2.94928C10.9218 1.02636 14.3898 -1.15955e-07 17.9375 -9.3093e-08L17.9375 6.59372C15.7265 6.59372 13.5652 7.23336 11.7268 8.43176C9.88843 9.63015 8.4556 11.3335 7.6095 13.3263C6.76339 15.3192 6.54201 17.5121 6.97335 19.6277C7.40469 21.7433 8.46938 23.6866 10.0328 25.2119C11.5962 26.7372 13.5881 27.7759 15.7566 28.1967C17.9251 28.6175 20.1728 28.4016 22.2155 27.5761C24.2582 26.7506 26.0041 25.3527 27.2324 23.5592C28.4608 21.7657 29.1164 19.6571 29.1164 17.5L35.875 17.5Z" stroke="#BC4DF0" stroke-width="4" mask="url(#path-2-inside-1_330_10)"/>
<defs>
<clipPath id="clip0_330_10">
<rect width="24.3564" height="23.7624" fill="white" transform="translate(8.37256 3.76233)"/>
</clipPath>
</defs>
</svg>
